PathFileType	4	(X/Y/Z)	C:/Users/beibeiliu/ov580/test_trc/User2\sequence.38_training_dense_right.trc
DataRate	CameraRate	NumFrames	NumMarkers	Units	OrigDataRate	OrigDataStartFrame	OrigNumFrames
120	120	16	19	mm	120	1	94
Frame#	Time	ThumbCMC			ThumbMCP			ThumbIP			ThumbTip			IndexMCP			IndexPIP			IndexTip			MiddleMCP			MiddlePIP			MiddleTip			RingMCP			RingPIP			RingTip			PinkyMCP			PinkyPIP			PinkyTip			BackHand1			BackHand2			BackHand3	
		X0	Y0	Z0	X1	Y1	Z1	X2	Y2	Z2	X3	Y3	Z3	X4	Y4	Z4	X5	Y5	Z5	X6	Y6	Z6	X7	Y7	Z7	X8	Y8	Z8	X9	Y9	Z9	X10	Y10	Z10	X11	Y11	Z11	X12	Y12	Z12	X13	Y13	Z13	X14	Y14	Z14	X15	Y15	Z15	X16	Y16	Z16	X17	Y17	Z17	X18	Y18	Z18	
0	0	96.2573	58.1215	23.956	62.6066	52.2781	9.24006	34.9199	45.4841	-10.311	14.2788	44.0487	-18.529	105.699	33.9955	-56.6836	95.5485	22.421	-82.922	89.2159	16.2872	-104.786	100.786	1.56643	-51.8075	72.8128	-12.8722	-61.9655	45.7868	-33.6211	-64.9067	93.5819	-16.6408	-27.3985	69.8947	-15.8502	-5.36761	84.4109	7.03694	20.7213	100.2	-25.0065	-9.56074	81.125	-14.1066	16.3263	97.5463	6.91258	32.8893	145.113	11.922	-2.84955	157.715	26.8011	29.5305	135.745	50.8395	9.0043	
1	0.00833333	107.976	72.7318	19.0339	78.2601	74.9948	12.503	46.3962	79.0666	-7.3619	26.3648	89.2481	-9.24317	100.822	43.6522	-55.264	86.3037	38.0053	-80.4398	74.7484	26.6183	-102.362	85.8539	20.4007	-48.2794	49.2691	13.6961	-55.3155	18.5704	4.80368	-54.7908	72.7021	5.48307	-22.3783	56.6246	8.06674	2.67915	81.8425	29.8594	23.7656	81.1929	-6.38955	-4.2545	70.1981	11.4335	23.5525	97.7185	26.5641	31.8947	135.097	10.8815	-3.99887	155.207	20.1475	25.7612	142.277	50.5214	2.22208	
2	0.0166667	127.299	81.7034	20.2883	95.4913	92.2436	9.30439	67.7584	108.677	-6.61205	51.0949	120.913	-11.6715	100.685	51.9456	-55.4634	85.8335	52.9365	-76.4485	69.4635	44.2225	-97.2469	73.842	37.7041	-47.5192	42.5049	44.2806	-51.2332	8.82653	47.5321	-48.2673	63.2084	26.5852	-16.8998	52.0926	41.9072	5.59402	83.118	48.6726	25.9637	66.0374	16.7955	-0.282945	65.4059	35.2651	26.4642	94.3278	40.8535	34.662	123.415	10.5725	-4.82009	147.25	10.2775	21.5049	146.833	43.639	0.312154	
3	0.025	140.897	80.7682	12.7232	117.964	102.046	5.78268	93.5261	123.063	-13.4492	82.5273	142.916	-18.2959	106.244	58.053	-56.7883	86.8514	60.4815	-81.4997	69.0217	55.8952	-99.1756	73.7135	48.9287	-46.4431	43.7821	67.131	-51.2931	16.6537	81.6811	-48.7387	60.5987	50.9436	-16.9691	57.9415	69.498	9.83541	89.9523	65.7888	24.8034	61.7092	38.3945	1.12439	66.6854	58.6582	25.0658	100.376	51.502	34.7614	115.266	14.6403	-5.86681	137.55	8.56307	24.3104	145.708	40.2181	-5.64896	
4	0.0333333	151.82	74.6137	6.14276	133.745	98.685	-1.94069	118.491	124.436	-21.9944	111.257	145.671	-30.4626	108.194	54.6162	-61.7092	96.0619	60.3021	-82.6268	75.5316	59.7711	-101.637	83.5219	56.6616	-50.0184	55.4949	82.114	-57.4131	34.4618	101.945	-59.2656	68.8066	60.4016	-19.644	70.1312	86.4058	3.7074	99.1376	74.9034	22.6533	63.1968	50.933	0.921694	77.4917	75.1124	24.316	103.866	57.3507	32.0453	109.922	15.8304	-1.51344	128.314	3.81522	26.0238	143.491	28.7516	-1.58884	
5	0.0416667	157.555	68.1661	1.71756	142.465	91.8897	-8.9784	133.941	116.65	-28.0772	130.184	137.329	-40.448	118.363	49.2665	-65.4556	100.569	50.9109	-87.3173	89.4272	53.5797	-113.266	88.6108	51.6994	-54.5655	66.2027	75.396	-66.4639	49.0088	99.935	-73.3844	75.1619	65.759	-26.3115	74.9416	88.8189	-4.81581	103.91	79.9218	13.8429	67.3201	59.148	-3.34707	82.8379	79.3246	15.1339	109.233	58.0128	30.3654	105.142	14.1817	-1.92821	126.369	6.03648	24.3637	143.284	24.0843	-5.25021	
6	0.05	160.628	61.3331	-0.671505	150.657	86.5223	-16.7555	142.365	110.211	-42.3276	139.609	129.023	-52.4391	127.232	36.0027	-69.9396	116.662	37.6558	-96.323	100.068	33.8332	-116.835	99.3402	39.866	-64.3294	77.8277	60.6448	-79.5152	56.9801	83.0218	-90.9365	78.4069	54.5677	-34.181	79.5993	80.3591	-15.5525	105.76	73.5283	7.72289	75.1808	48.5546	-14.0186	86.6633	72.2772	9.54352	112.122	52.6554	23.1779	115.481	7.28107	-4.32479	133.253	2.95005	24.6482	150.991	19.0434	-6.52763	
7	0.0583333	165.836	60.8101	0.04756	150.561	81.8605	-21.8893	140.426	101.833	-48.0114	135.414	119.63	-63.426	142.228	26.9194	-74.8834	128.859	24.3323	-101.036	120.02	18.4513	-125.627	108.948	26.9707	-70.6222	88.3285	43.8644	-89.6644	62.4939	61	-105.931	85.8374	40.3474	-42.0784	82.6732	66.1856	-24.2232	109.675	64.8008	-2.11093	81.8926	33.0807	-22.9343	88.4475	60.2803	-3.91091	114.433	47.7428	17.5014	125.943	-1.06644	-12.0544	142.607	-2.26147	24.5728	163.613	16.5067	-5.71416	
8	0.0666667	161.004	59.19	-3.82091	144.21	78.3816	-23.7086	130.928	92.3349	-49.6792	121.686	108.654	-66.1406	158.342	23.8059	-77.1441	153.572	20.1117	-103.053	147.113	12.5215	-124.954	128.827	13.6413	-75.5687	103.856	25.0174	-99.2949	84.367	33.6333	-114.717	104.226	19.6972	-52.6329	88.8006	44.6547	-38.598	112.404	48.3738	-7.32467	93.3491	13.9999	-32.3946	94.7086	41.6214	-12.7521	115.281	35.4155	9.89382	143.04	-10.6947	-13.4817	154.033	-7.38206	20.1987	172.687	17.7782	-3.6276	
9	0.075	156.732	64.1007	0.865163	133.252	73.3458	-24.67	118.736	84.4975	-51.1192	105.792	95.6322	-70.3593	173.37	30.2356	-76.5961	172.389	31.571	-100.606	171.911	21.3371	-129.19	150.202	14.4924	-82.4536	125.715	14.9738	-105.393	106.162	17.0184	-124.265	122.257	6.23626	-59.2044	99.13	24.8788	-46.9559	117.007	34.5524	-15.3406	111.333	-4.73199	-40.0832	101.47	21.1552	-20.3705	124.855	26.3404	1.41831	165.742	-4.33346	-15.2317	170.673	-5.12371	16.7243	183.044	24.3138	-1.78266	
10	0.0833333	147.007	61.2226	0.794642	122.487	67.7102	-26.0228	104.108	74.6427	-52.7547	90.5636	77.7316	-72.6254	180.704	50.2768	-69.9777	182.859	50.2238	-100.985	188.024	41.6355	-122.772	165.682	22.217	-81.1729	148.276	15.6886	-104.973	128.154	11.5935	-128.606	138.684	2.39201	-64.1448	112.208	9.83416	-51.2768	124.506	23.0779	-18.8277	134.828	-12.5481	-45.0848	115.086	6.23921	-26.2889	135.329	18.1717	0.0631636	183.249	6.3214	-13.9611	186.294	6.26987	20.6867	183.45	39.1456	1.57777	
11	0.0916667	131.871	56.9284	7.62887	115.519	51.8213	-22.7651	96.3263	57.4077	-56.2117	80.8317	59.7292	-75.3461	175.141	72.8577	-64.6195	181.532	75.1571	-91.3421	190.483	77.6239	-116.679	175.659	44.9587	-74.9334	164.192	34.1766	-106.557	150.265	27.6747	-132.691	158.337	10.5192	-66.5144	130.374	2.71809	-55.8333	135.045	18.2336	-20.9936	155.758	-3.01568	-50.6666	130.425	-1.45202	-28.5288	142.962	11.0713	-1.59258	193.861	23.5298	-15.55	191.056	21.385	22.0731	175.707	56.2565	3.77452	
12	0.1	119.79	48.3613	7.6862	109.503	40.2009	-23.9813	93.4354	40.5033	-53.0626	79.3437	40.6163	-72.8024	161.275	89.4464	-56.4039	167.498	96.1707	-80.1575	172.238	106.306	-100.775	173.061	64.209	-73.0922	170.579	52.9601	-104.424	164.217	45.6884	-131.204	167.184	23.2416	-65.6363	144.352	2.44226	-55.7758	139.527	15.7388	-22.4081	172.137	5.21595	-51.5187	145.339	-2.37134	-33.7688	148.281	10.9577	-4.22869	192.57	43.9044	-7.60247	187.741	33.7725	26.1652	163.327	62.9189	14.471	
13	0.108333	114.128	42.1073	7.66933	101.294	34.4974	-23.5971	88.7643	35.6239	-53.4511	73.1433	32.1329	-70.2	145.902	90.6486	-48.2199	150.074	103.766	-72.6768	155.221	119.389	-96.9379	166.29	72.0785	-63.0103	163.748	67.6191	-95.3839	161.12	60.8402	-129.598	165.929	29.4384	-63.1194	144.083	10.5859	-58.3148	138.416	10.7678	-24.2173	176.047	14.7269	-47.8816	148.335	-2.46694	-31.7929	144.904	8.69541	-5.68553	181.118	51.7683	0.0142919	178.897	41.5615	29.8677	148.168	65.0465	19.211	
14	0.116667	99.6161	38.1328	10.6421	85.4217	29.3993	-18.1927	74.25	30.295	-49.223	57.0988	28.6761	-69.4066	126.703	91.7279	-48.6131	130.877	101.811	-73.3883	132.236	114.875	-94.1403	145.282	72.9721	-62.1876	147.71	67.3168	-92.0934	144.232	62.1933	-125.732	154.833	30.077	-59.4681	134.489	4.40661	-53.1352	128.397	10.495	-17.7434	164.02	16.6623	-44.7792	142.788	-7.21075	-32.0184	137.116	5.58268	1.16653	170.337	51.9869	0.571737	164.633	43.5067	34.4382	134.264	63.027	17.4387	
15	0.125	85.1608	29.507	13.3334	74.5267	17.3946	-14.71	58.242	15.1269	-43.6448	44.3463	10.3084	-60.636	108.922	77.0106	-50.2803	109.551	85.6545	-77.1129	111.624	96.3238	-99.1079	130.021	58.2188	-65.318	126.242	51.6049	-96.4217	125.241	44.6185	-123.822	136.295	18.929	-58.1941	125.681	-9.34673	-51.5327	117.727	-1.79886	-13.76	150.764	4.37585	-42.6906	130.276	-17.0125	-26.4758	125.053	-3.52993	3.9746	158.121	44.6714	1.5733	156.253	38.3769	32.992	120.727	53.6359	20.6382	
